<svg xmlns="http://www.w3.org/2000/svg" xmlns:xlink="http://www.w3.org/1999/xlink" viewBox="0 0 13.52 9"><defs><style>.cls-1{fill:#eae6e8;}.cls-2{fill:#bbbdc2;}.cls-3{fill:url(#linear-gradient);}.cls-4{fill:url(#linear-gradient-2);}</style><linearGradient id="linear-gradient" x1="8.12" x2="8.12" y2="9" gradientUnits="userSpaceOnUse"><stop offset="0" stop-color="#01aaee"/><stop offset="1" stop-color="#124799"/></linearGradient><linearGradient id="linear-gradient-2" x1="0" y1="4.5" x2="6.65" y2="4.5" xlink:href="#linear-gradient"/></defs><g id="Layer_2" data-name="Layer 2"><g id="Layer_1-2" data-name="Layer 1"><polygon class="cls-1" points="3.97 0 10.51 0 12.27 2.63 13.52 4.5 12.15 6.72 10.74 9 3.97 9 7.32 4.5 3.97 0"/><polygon class="cls-2" points="13.52 4.5 7.32 4.5 3.97 9 10.74 9 13.52 4.5"/><polygon class="cls-3" points="12.15 6.72 10.74 9 3.97 9 7.32 4.5 3.97 0 10.51 0 12.27 2.63 10.44 2.56 9.88 1.45 6.65 1.45 8.97 4.5 6.65 7.8 9.66 7.8 10.44 6.68 12.15 6.72"/><polygon class="cls-4" points="6.65 4.5 3.33 8.96 0 4.5 3.33 0.04 6.65 4.5"/></g></g></svg>