<svg xmlns="http://www.w3.org/2000/svg" viewBox="0 0 39.34 6.37"><defs><style>.cls-1{fill:#fff;}</style></defs><g id="Layer_2" data-name="Layer 2"><g id="Layer_1-2" data-name="Layer 1"><path class="cls-1" d="M4.76,2h1V1.34s0-.9-.73-.9h-4S0,.44,0,1.32V3s.15.82.88.82H4.7V5.27H1.55A.53.53,0,0,1,1,4.69H0v.72a.87.87,0,0,0,.88.89H4.81a1,1,0,0,0,.9-1V3.75s0-1-.88-1H1V1.46H4.25S4.83,1.46,4.76,2Z"/><path class="cls-1" d="M10.51,1.61H6.59v1H10a.27.27,0,0,1,.24.3v.54H6.59v2s.07.83.76.83h4V2.44S11.2,1.61,10.51,1.61ZM10.3,5.2H7.76V4.39H10.3Z"/><path class="cls-1" d="M27.35,1.46H23.43v1h3.42a.27.27,0,0,1,.24.3v.55H23.43v2s.07.83.77.83h4V2.29S28.05,1.46,27.35,1.46Zm-.21,3.6H24.6V4.25h2.54Z"/><path class="cls-1" d="M38.48,1.61H34.56v1H38a.27.27,0,0,1,.24.3v.54H34.56v2s.07.83.77.83h4V2.44S39.18,1.61,38.48,1.61ZM38.27,5.2H35.73V4.39h2.54Z"/><rect class="cls-1" x="7.03" width="3.72" height="0.74"/><path class="cls-1" d="M15.89,0V1.54l-3,.07c-.53.07-.63.82-.63.82V5.49c0,.59.88.88.88.88L17,6.3V0Zm-.05,5.15H13.33V2.64h2.51Z"/><path class="cls-1" d="M18.89,0h-1V6.15h1V2.64h2.64l0,3.51h1.08V2.46s0-1-.91-1H18.89Z"/><path class="cls-1" d="M29,1.46V6.15h1.12V2.54l2.18,0s.44,0,.44.3V6.3h1.1l-.07-3.74s0-1-.87-1.1Z"/></g></g></svg>